# xmcd
#
# Track frame offsets:
#	150
#	18126
#	35667
#	55221
#	75479
#	94836
#	113648
#	130748
#	149921
#	169533
#	187480
#	205891
#	225499
#	244489
#
# Disc length: 3504 seconds
#
# Revision: 4
# Processed by: cddbd v1.5.2PL0 Copyright (c) Steve Scherf et al.
# Submitted via: EasyCDDAExtractor 10.0.3.1
#
DISCID=c30dae0e
DTITLE=COOL - third whisper
DYEAR=2003
DGENRE=ballad
TTITLE0=Blue Moon
TTITLE1=떠나야만 했나요
TTITLE2=나는 유죄다
TTITLE3=당신에게 일어날 수 있는 일
TTITLE4=설야
TTITLE5=별과 나(Notting Hill)
TTITLE6=그래요 난...
TTITLE7=약속할께요(PROMISE)
TTITLE8=겨울잠
TTITLE9=Again
TTITLE10=괜찮을것 같아
TTITLE11=소곡(小哭)
TTITLE12=Last Christmas
TTITLE13=겨울여행
EXTD=
EXTT0=
EXTT1=
EXTT2=
EXTT3=
EXTT4=
EXTT5=
EXTT6=
EXTT7=
EXTT8=
EXTT9=
EXTT10=
EXTT11=
EXTT12=
EXTT13=
PLAYORDER=
